# xmcd
#
# Track frame offsets: 
#        150
#        26532
#        49816
#        70721
#        101178
#        119131
#        147586
#        169685
#        188163
#        206415
#        224562
#        242676
#
# Disc length: 3546 seconds
#
# Revision: 0
# Processed by: cddbd v1.5.2PL0 Copyright (c) Steve Scherf et al.
# Submitted via: ExactAudioCopyFreeDBPlugin 1.0
#
DISCID=ba0dd80c
DTITLE=Various Artist - Luxury Soul 2012 [CD3)
DYEAR=2012
DGENRE=Soul
TTITLE0=June Yamagishi feat. Bobby Womack - I'll Come Running Back To 
TTITLE0=You
TTITLE1=Chapter 8 - So In Love
TTITLE2=Ashford and Simpson - I'm Not That Tough
TTITLE3=Valentine Brothers - Just Let Me Be Close To You
TTITLE4=Jean Carne - Flame Of Love
TTITLE5=Keni Burke - I Get Off On You
TTITLE6=Kloud 9 - Priority
TTITLE7=Maysa Leak - Compliments
TTITLE8=Al Olive - Slow Down
TTITLE9=Ebony Alleyne - Know Your Way
TTITLE10=Lenny Williams - Inner City Rainbow
TTITLE11=Ray Gaskins feat. Roy Ayers - Lullabye
EXTD=
EXTT0=
EXTT1=
EXTT2=
EXTT3=
EXTT4=
EXTT5=
EXTT6=
EXTT7=
EXTT8=
EXTT9=
EXTT10=
EXTT11=
PLAYORDER=
